<svg width="24" height="24" viewBox="0 0 24 24" fill="none" xmlns="http://www.w3.org/2000/svg">
<path d="M7.74414 5.10498C7.80614 5.0934 7.87085 5.10172 7.92871 5.12939C8.00564 5.16622 8.06301 5.23405 8.08691 5.31592L12.2871 19.7163C12.3134 19.8069 12.2958 19.9045 12.2393 19.98C12.1826 20.0555 12.0934 20.1001 11.999 20.1001H8.99902C8.87008 20.1 8.75574 20.0173 8.71484 19.895L6.31445 12.6948C6.28332 12.6014 6.30031 12.4982 6.35938 12.4194L6.99707 11.5679L5.31641 11.0884C5.21899 11.0604 5.14212 10.9851 5.1123 10.8882L3.91211 6.98779C3.86693 6.84023 3.94149 6.68193 4.08398 6.62256L7.68359 5.12256L7.74414 5.10498Z" fill="#7B7B7B" stroke="black" stroke-width="0.6" stroke-linejoin="round"/>
<path d="M16.2559 5.10498C16.1939 5.0934 16.1291 5.10172 16.0713 5.12939C15.9944 5.16622 15.937 5.23405 15.9131 5.31592L11.7129 19.7163C11.6866 19.8069 11.7042 19.9045 11.7607 19.98C11.8174 20.0555 11.9066 20.1001 12.001 20.1001H15.001C15.1299 20.1 15.2443 20.0173 15.2852 19.895L17.6855 12.6948C17.7167 12.6014 17.6997 12.4982 17.6406 12.4194L17.0029 11.5679L18.6836 11.0884C18.781 11.0604 18.8579 10.9851 18.8877 10.8882L20.0879 6.98779C20.1331 6.84023 20.0585 6.68193 19.916 6.62256L16.3164 5.12256L16.2559 5.10498Z" fill="#7B7B7B" stroke="black" stroke-width="0.6" stroke-linejoin="round"/>
<path d="M6.59961 5.40039C6.59961 4.99579 6.99264 4.70676 7.37891 4.82715L9.47852 5.48145C9.72922 5.55958 9.90039 5.79209 9.90039 6.05469V7.91504C9.90021 8.17746 9.72907 8.4092 9.47852 8.4873L7.37891 9.1416C6.99268 9.26199 6.5997 8.97386 6.59961 8.56934V5.40039ZM16.3057 4.84961C16.6949 4.71638 17.0994 5.00561 17.0996 5.41699V8.53711C17.0996 8.94877 16.6951 9.23794 16.3057 9.10449L14.5059 8.48828C14.2633 8.40513 14.0996 8.17629 14.0996 7.91992V6.03418C14.0998 5.77795 14.2635 5.54991 14.5059 5.4668L16.3057 4.84961ZM12.5996 5.18457C13.2624 5.18457 13.7998 5.72202 13.7998 6.38477V7.58496C13.7997 8.24757 13.2623 8.78516 12.5996 8.78516H11.4004C10.7377 8.78516 10.2003 8.24757 10.2002 7.58496V6.38477C10.2002 5.72202 10.7376 5.18457 11.4004 5.18457H12.5996Z" fill="black"/>
<path d="M14.999 15.3003C15.8275 15.3003 16.499 15.9719 16.499 16.8003V19.1997C16.499 20.0281 15.8275 20.6997 14.999 20.6997H12.8477C12.609 20.6997 12.3797 20.6048 12.2109 20.436L11.6631 19.8882C11.6069 19.832 11.5306 19.8004 11.4512 19.8003H9.89941V16.1997H11.4512C11.5306 16.1996 11.6069 16.168 11.6631 16.1118L12.2109 15.564C12.3797 15.3952 12.609 15.3003 12.8477 15.3003H14.999Z" fill="#7B7B7B" stroke="black" stroke-width="0.6"/>
<path d="M10.2002 15.3003C10.6971 15.3003 11.1004 15.7028 11.1006 16.1997V19.8003C11.1005 20.2973 10.6972 20.6997 10.2002 20.6997H4.2002C3.04049 20.6996 2.10059 19.7598 2.10059 18.6001V17.3999C2.10069 16.2403 3.04055 15.3004 4.2002 15.3003H10.2002Z" fill="#7B7B7B" stroke="black" stroke-width="0.6"/>
<path d="M16.7998 9V8.23997V9ZM17.1797 9.37988H17.9397L17.9397 9.37902L17.1797 9.37988ZM19.8398 10.1406H19.0798L19.0798 10.1412L19.8398 10.1406ZM20.2197 9.76074V9.00072L20.2193 9.00072L20.2197 9.76074ZM20.5996 10.1406L21.3596 10.1412V10.1406H20.5996ZM20.2197 10.5205L20.2193 11.2805H20.2197V10.5205ZM13.3799 10.5205V11.2805L13.3803 11.2805L13.3799 10.5205ZM13 10.1406H12.24L12.24 10.1411L13 10.1406ZM13.3799 9.76074L13.3803 9.00072H13.3799V9.76074ZM13.7598 10.1406L14.5198 10.1411V10.1406H13.7598ZM16.4199 9.37988L15.6599 9.37902V9.37988H16.4199ZM16.63 9.80283L17.3357 10.0851L16.63 9.80283ZM16.5911 9.69727L16.173 10.3319L16.5911 9.69727ZM13.6802 10.3696L14.2795 10.837L13.6802 10.3696ZM13.678 10.4821L13.1061 10.9826L13.678 10.4821ZM20.1917 10.5191L20.1155 11.2753L20.1917 10.5191ZM20.0967 10.577L20.8288 10.7814L20.0967 10.577ZM13.4071 10.5191L13.4839 11.2752L13.4071 10.5191ZM19.9207 10.4819L19.3487 9.98153L19.9207 10.4819ZM19.9187 10.3696L20.5198 9.90447L19.9187 10.3696ZM14.1396 13.1802L14.8997 13.179L14.1396 13.1802ZM18.035 12.4697L18.7407 12.1876L18.035 12.4697ZM18.1628 12.4916L17.5907 11.9912L18.1628 12.4916ZM17.0077 9.69736L17.4242 10.3331L17.0077 9.69736ZM16.9687 9.803L16.263 10.0852L16.9687 9.803ZM16.7998 9V9.76003C16.5889 9.76003 16.4199 9.58929 16.4197 9.38074L17.1797 9.37988L17.9397 9.37902C17.939 8.75113 17.4301 8.23997 16.7998 8.23997V9ZM17.1797 9.37988H16.4197C16.4197 9.24487 16.4903 9.12771 16.5913 9.06161L17.0077 9.69736L17.4242 10.3331C17.7321 10.1314 17.9397 9.78086 17.9397 9.37988H17.1797ZM16.9687 9.803L16.263 10.0852L17.3293 12.7519L18.035 12.4697L18.7407 12.1876L17.6744 9.52082L16.9687 9.803ZM18.1628 12.4916L18.7348 12.992L20.4928 10.9823L19.9207 10.4819L19.3487 9.98153L17.5907 11.9912L18.1628 12.4916ZM19.9187 10.3696L20.5198 9.90447C20.5673 9.96589 20.5998 10.0485 20.5999 10.1401L19.8398 10.1406L19.0798 10.1412C19.08 10.4059 19.1719 10.6464 19.3177 10.8348L19.9187 10.3696ZM19.8398 10.1406H20.5999C20.5999 10.3509 20.4294 10.5207 20.2201 10.5208L20.2197 9.76074L20.2193 9.00072C19.5905 9.00103 19.0798 9.51068 19.0798 10.1406H19.8398ZM20.2197 9.76074V10.5208C20.0099 10.5208 19.8396 10.3505 19.8396 10.1406H20.5996H21.3596C21.3596 9.511 20.8494 9.00072 20.2197 9.00072V9.76074ZM20.5996 10.1406L19.8396 10.1401C19.8397 9.93104 20.0092 9.76048 20.2197 9.76048V10.5205V11.2805C20.8498 11.2805 21.3592 10.7697 21.3596 10.1412L20.5996 10.1406ZM20.2197 10.5205L20.2201 9.76048C20.2381 9.76049 20.2542 9.76148 20.2679 9.76286L20.1917 10.5191L20.1155 11.2753C20.1477 11.2785 20.1824 11.2805 20.2193 11.2805L20.2197 10.5205ZM20.0967 10.577L19.3647 10.3726C19.231 10.8514 19.0699 11.4442 18.9417 11.9523C18.8778 12.2058 18.8206 12.444 18.7789 12.6389C18.7444 12.8 18.6999 13.0195 18.6999 13.1807H19.46H20.22C20.22 13.2118 20.2219 13.1597 20.2653 12.957C20.3014 12.7881 20.3536 12.5701 20.4156 12.3241C20.5394 11.8334 20.6967 11.2544 20.8288 10.7814L20.0967 10.577ZM19.46 13.1807H18.6999V14.6242H19.46H20.22V13.1807H19.46ZM19.384 14.7002V13.9402H14.2166V14.7002V15.4602H19.384V14.7002ZM14.1406 14.6242H14.9007V13.1812H14.1406H13.3806V14.6242H14.1406ZM14.1396 13.1802L14.8997 13.179C14.8994 13.0181 14.8549 12.799 14.8203 12.6375C14.7785 12.4426 14.7211 12.2044 14.6571 11.9511C14.5287 11.4431 14.3675 10.8508 14.2339 10.3724L13.5018 10.5768L12.7698 10.7813C12.9019 11.2542 13.0594 11.8329 13.1834 12.3235C13.2455 12.5695 13.2978 12.7875 13.3341 12.9565C13.3775 13.159 13.3797 13.2118 13.3796 13.1814L14.1396 13.1802ZM13.4071 10.5191L13.3304 9.76294C13.3444 9.76152 13.3609 9.76049 13.3795 9.76048L13.3799 10.5205L13.3803 11.2805C13.4173 11.2805 13.452 11.2785 13.4839 11.2752L13.4071 10.5191ZM13.3799 10.5205V9.76048C13.5903 9.76048 13.7599 9.93102 13.76 10.1401L13 10.1406L12.24 10.1411C12.2404 10.7698 12.7499 11.2805 13.3799 11.2805V10.5205ZM13 10.1406H13.76C13.76 10.3505 13.5898 10.5208 13.3799 10.5208V9.76074V9.00072C12.7503 9.00072 12.24 9.511 12.24 10.1406H13ZM13.3799 9.76074L13.3795 10.5208C13.1702 10.5207 12.9997 10.3509 12.9997 10.1406H13.7598H14.5198C14.5198 9.51068 14.0091 9.00103 13.3803 9.00072L13.3799 9.76074ZM13.7598 10.1406L12.9997 10.1401C12.9998 10.0463 13.0335 9.96296 13.0808 9.9023L13.6802 10.3696L14.2795 10.837C14.4257 10.6495 14.5196 10.4085 14.5198 10.1411L13.7598 10.1406ZM13.678 10.4821L13.1061 10.9826L14.864 12.9912L15.4359 12.4906L16.0078 11.9901L14.25 9.98152L13.678 10.4821ZM15.5636 12.4688L16.2693 12.7511L17.3357 10.0851L16.63 9.80283L15.9244 9.52057L14.858 12.1865L15.5636 12.4688ZM16.5911 9.69727L17.0093 9.0626C17.1102 9.12909 17.1799 9.24597 17.1799 9.37988H16.4199H15.6599C15.6599 9.77923 15.8659 10.1296 16.173 10.3319L16.5911 9.69727ZM16.4199 9.37988L17.1799 9.38074C17.1797 9.58929 17.0107 9.76003 16.7998 9.76003V9V8.23997C16.1695 8.23997 15.6606 8.75113 15.6599 9.37902L16.4199 9.37988ZM16.63 9.80283L17.3357 10.0851C17.5175 9.63073 17.2671 9.23244 17.0093 9.0626L16.5911 9.69727L16.173 10.3319C15.9852 10.2082 15.7738 9.89712 15.9244 9.52057L16.63 9.80283ZM15.4359 12.4906L14.864 12.9912C15.2751 13.461 16.0375 13.3307 16.2693 12.7511L15.5636 12.4688L14.858 12.1865C15.0477 11.7123 15.6714 11.6057 16.0078 11.9901L15.4359 12.4906ZM14.2166 14.7002V13.9402C14.5944 13.9402 14.9007 14.2464 14.9007 14.6242H14.1406H13.3806C13.3806 15.0859 13.7549 15.4602 14.2166 15.4602V14.7002ZM19.46 14.6242H18.6999C18.6999 14.2464 19.0062 13.9402 19.384 13.9402V14.7002V15.4602C19.8457 15.4602 20.22 15.0859 20.22 14.6242H19.46ZM13.6802 10.3696L13.0808 9.9023C12.8865 10.1514 12.7833 10.6137 13.1061 10.9826L13.678 10.4821L14.25 9.98152C14.5174 10.2871 14.4221 10.6541 14.2795 10.837L13.6802 10.3696ZM20.1917 10.5191L20.2679 9.76286C19.9569 9.73152 19.4999 9.88854 19.3647 10.3726L20.0967 10.577L20.8288 10.7814C20.7162 11.1845 20.3429 11.2982 20.1155 11.2753L20.1917 10.5191ZM13.5018 10.5768L14.2339 10.3724C14.0986 9.88802 13.6412 9.73138 13.3304 9.76294L13.4071 10.5191L13.4839 11.2752C13.2565 11.2983 12.8826 11.1848 12.7698 10.7813L13.5018 10.5768ZM19.9207 10.4819L20.4928 10.9823C20.815 10.6139 20.712 10.1529 20.5198 9.90447L19.9187 10.3696L19.3177 10.8348C19.1768 10.6527 19.0816 10.2868 19.3487 9.98153L19.9207 10.4819ZM14.1401 13.1807V12.4206C14.2849 12.4206 14.4668 12.4635 14.6268 12.5971C14.8003 12.7419 14.8993 12.9554 14.8997 13.179L14.1396 13.1802L13.3796 13.1814C13.38 13.4054 13.4791 13.6191 13.6527 13.764C13.813 13.8978 13.9952 13.9407 14.1401 13.9407V13.1807ZM18.035 12.4697L17.3293 12.7519C17.5611 13.3317 18.3237 13.462 18.7348 12.992L18.1628 12.4916L17.5907 11.9912C17.9271 11.6066 18.551 11.7132 18.7407 12.1876L18.035 12.4697ZM14.1406 13.1812H14.9007C14.9007 12.7611 14.5601 12.4206 14.1401 12.4206V13.1807V13.9407C13.7207 13.9407 13.3806 13.6007 13.3806 13.1812H14.1406ZM17.0077 9.69736L16.5913 9.06161C16.3324 9.23121 16.081 9.63005 16.263 10.0852L16.9687 9.803L17.6744 9.52082C17.8252 9.898 17.6129 10.2095 17.4242 10.3331L17.0077 9.69736Z" fill="white"/>
<path d="M16.7998 9C17.0095 9 17.1795 9.17021 17.1797 9.37988C17.1797 9.51286 17.1112 9.62957 17.0077 9.69736C16.9726 9.72036 16.9531 9.76402 16.9687 9.803L18.035 12.4697C18.0561 12.5225 18.1254 12.5343 18.1628 12.4916L19.9207 10.4819C19.9483 10.4504 19.9444 10.4028 19.9187 10.3696C19.8696 10.3061 19.8399 10.2272 19.8398 10.1406C19.8398 9.93081 20.0099 9.76085 20.2197 9.76074C20.4296 9.76074 20.5996 9.93075 20.5996 10.1406C20.5995 10.3504 20.4295 10.5205 20.2197 10.5205C20.2103 10.5205 20.2009 10.52 20.1917 10.5191C20.1499 10.5148 20.108 10.5365 20.0967 10.577C19.8309 11.5288 19.46 12.9206 19.46 13.1807V14.6242C19.46 14.6662 19.4259 14.7002 19.384 14.7002H14.2166C14.1747 14.7002 14.1406 14.6662 14.1406 14.6242V13.1812C14.1406 13.1809 14.1404 13.1807 14.1401 13.1807C14.1399 13.1807 14.1396 13.1805 14.1396 13.1802C14.1392 12.919 13.7676 11.5281 13.5018 10.5768C13.4906 10.5364 13.4489 10.5148 13.4071 10.5191C13.3982 10.52 13.3891 10.5205 13.3799 10.5205C13.1701 10.5205 13.0001 10.3504 13 10.1406C13 9.93075 13.17 9.76074 13.3799 9.76074C13.5897 9.76085 13.7598 9.93081 13.7598 10.1406C13.7597 10.2274 13.7296 10.3062 13.6802 10.3696C13.6543 10.4028 13.6504 10.4504 13.678 10.4821L15.4359 12.4906C15.4733 12.5334 15.5426 12.5215 15.5636 12.4688L16.63 9.80283C16.6456 9.76392 16.6261 9.72033 16.5911 9.69727C16.488 9.62934 16.4199 9.5126 16.4199 9.37988C16.4202 9.17021 16.5901 9 16.7998 9Z" fill="black"/>
<circle cx="9.6" cy="19.2001" r="0.6" fill="black"/>
</svg>
