<svg width="23" height="24" viewBox="0 0 23 24" fill="none" xmlns="http://www.w3.org/2000/svg">
<path d="M15.2211 9.52539C15.514 9.2325 15.514 8.75763 15.2211 8.46473C14.9282 8.17184 14.4533 8.17184 14.1604 8.46473L11.6855 10.9396L9.21067 8.46473C8.91778 8.17184 8.44291 8.17184 8.15001 8.46473C7.85712 8.75763 7.85712 9.2325 8.15001 9.52539L10.6249 12.0003L8.15001 14.4751C7.85712 14.768 7.85712 15.2429 8.15001 15.5358C8.44291 15.8287 8.91778 15.8287 9.21067 15.5358L11.6855 13.0609L14.1604 15.5358C14.4533 15.8287 14.9282 15.8287 15.2211 15.5358C15.514 15.2429 15.514 14.768 15.2211 14.4751L12.7462 12.0003L15.2211 9.52539Z" fill="#292826"/>
</svg>
