<svg width="16" height="16" viewBox="0 0 16 16" fill="none" xmlns="http://www.w3.org/2000/svg">
<path fill-rule="evenodd" clip-rule="evenodd" d="M6.70013 2.25C7.27749 1.25 8.72086 1.25 9.29821 2.25L14.4944 11.25C15.0717 12.25 14.35 13.5 13.1953 13.5H2.80302C1.64832 13.5 0.926631 12.25 1.50398 11.25L6.70013 2.25ZM7.99917 4C8.41338 4 8.74917 4.33579 8.74917 4.75V7.75C8.74917 8.16421 8.41338 8.5 7.99917 8.5C7.58496 8.5 7.24917 8.16421 7.24917 7.75V4.75C7.24917 4.33579 7.58496 4 7.99917 4ZM7.99917 12C8.55146 12 8.99917 11.5523 8.99917 11C8.99917 10.4477 8.55146 10 7.99917 10C7.44689 10 6.99917 10.4477 6.99917 11C6.99917 11.5523 7.44689 12 7.99917 12Z" fill="#F8473C"/>
</svg>
