<svg width="24" height="24" viewBox="0 0 24 24" fill="none" xmlns="http://www.w3.org/2000/svg">
<circle cx="15.6004" cy="13.2" r="6.9" stroke="black" stroke-width="0.6"/>
<circle cx="15.6" cy="13.2001" r="3.3" stroke="black" stroke-width="0.6"/>
<circle cx="15.6004" cy="13.2" r="7.2" fill="black" fill-opacity="0.5"/>
<path d="M3.62012 3.20557C3.61933 3.0268 3.40675 2.93313 3.27441 3.05322C2.40567 3.84299 1.86001 4.92697 1.74316 6.09521L1.2041 11.4878C1.17428 11.786 1.31627 12.0759 1.57031 12.2349L2.38672 12.7446L2.00293 20.3081C1.97835 20.7921 2.36406 21.1977 2.84863 21.1978C3.3177 21.1976 3.69737 20.8163 3.69531 20.3472L3.62012 3.20557Z" fill="black"/>
<path d="M5.01767 3C5.17798 3 5.30504 3.13505 5.29556 3.29507C5.23292 4.35223 5.16505 5.75957 5.16504 6.33691C5.16504 7.03949 5.16489 7.70395 5.21973 8.25098C5.22986 8.34953 5.31838 8.4218 5.41699 8.41211C5.51564 8.40203 5.58787 8.31353 5.57812 8.21484C5.52547 7.68958 5.52441 7.04538 5.52441 6.33691C5.52443 5.75539 5.59549 4.30004 5.65909 3.2405C5.66722 3.10514 5.77946 3 5.91507 3C6.0569 3 6.17188 3.11498 6.17188 3.25681V8.23242C6.17188 8.3317 6.25331 8.4119 6.35254 8.41211C6.45178 8.41191 6.53223 8.33171 6.53223 8.23242V3.27259C6.53223 3.12204 6.65427 3 6.80482 3C6.94862 3 7.06768 3.11167 7.0769 3.25517C7.09826 3.58763 7.12225 3.95735 7.14648 4.3252C7.20012 5.13952 7.24901 5.94293 7.24902 6.33691C7.24902 7.04542 7.24798 7.68956 7.19531 8.21484C7.18558 8.31338 7.25803 8.4018 7.35645 8.41211C7.4552 8.42201 7.54356 8.34965 7.55371 8.25098C7.60856 7.70394 7.6084 7.03953 7.6084 6.33691C7.60838 5.9282 7.55817 5.1108 7.50488 4.30176C7.48051 3.93177 7.45602 3.56276 7.43473 3.23223C7.42663 3.1064 7.52656 3 7.65265 3C7.76458 3 7.85839 3.08452 7.87343 3.19543C8.01821 4.26312 8.53996 6.73491 8.54004 7.58496C8.54004 9.09579 8.33614 9.84429 7.48613 10.2968C7.26427 10.415 7.10352 10.6328 7.10352 10.8841L7.10352 20.3799C7.10348 20.843 6.72778 21.2187 6.26465 21.2188C5.79116 21.2188 5.4119 20.8268 5.42676 20.3535L5.72204 10.9547C5.73049 10.6858 5.55475 10.4522 5.31324 10.3338C4.43749 9.90451 4.19922 9.12557 4.19922 7.58496C4.19927 6.74123 4.54165 4.29975 4.74873 3.21946C4.77341 3.09073 4.88661 3 5.01767 3Z" fill="black"/>
</svg>
