<svg width="24" height="24" viewBox="0 0 24 24" fill="none" xmlns="http://www.w3.org/2000/svg">
<path d="M3.625 9.40527C4.63839 9.64048 6.1895 9.77444 7.79297 9.78711C9.39802 9.79979 11.095 9.69047 12.4092 9.42676L11.5742 21.1279C11.5068 22.0698 10.7226 22.7998 9.77832 22.7998H6.25781C5.31394 22.7993 4.53017 22.0695 4.46289 21.1279L3.625 9.40527ZM10.6582 5.58008C11.4323 6.08098 11.9453 6.94979 11.9453 7.94043C11.9454 8.02741 11.966 8.11358 12.0049 8.19141L12.3252 8.83203C11.0683 9.08817 9.40182 9.19918 7.79785 9.18652C6.17453 9.17369 4.65647 9.03407 3.7207 8.81055L4.03125 8.19141C4.07022 8.11347 4.09073 8.02756 4.09082 7.94043C4.09082 6.95005 4.60509 6.0811 5.37891 5.58008H10.6582ZM9.21777 2.01855C9.88052 2.01855 10.418 2.55601 10.418 3.21875V4.98047H5.61816V3.21875C5.61816 2.55632 6.15605 2.01906 6.81836 2.01855H9.21777Z" fill="#292826"/>
<path d="M20.2783 9.05859C20.4008 8.94722 20.5907 8.95576 20.7021 9.07812C20.8136 9.20071 20.8042 9.3905 20.6816 9.50195L18.6426 11.3545C19.3552 11.4497 20.0949 11.6088 20.835 11.8555C20.9921 11.9079 21.0768 12.0782 21.0244 12.2354C21.0111 12.2752 20.9892 12.3094 20.9629 12.3389L20.2471 21.3633C20.1827 22.1744 19.5061 22.7998 18.6924 22.7998H15.5078C14.7449 22.7997 14.1019 22.25 13.9717 21.5127L13.9531 21.3633L13.2363 12.3379C13.2194 12.3188 13.2034 12.2983 13.1914 12.2744C13.1175 12.1263 13.1782 11.9462 13.3262 11.8721C13.8976 11.5865 14.9832 11.322 16.3047 11.2559C16.7861 11.2318 17.3026 11.2339 17.8418 11.2715L20.2783 9.05859ZM20.0732 15.3262C19.0986 15.7213 18.038 15.8377 17.0742 15.8174L15.833 21.5635C15.798 21.7254 15.6385 21.8289 15.4766 21.7939C15.3148 21.7588 15.2121 21.5984 15.2471 21.4365L16.4688 15.7852C15.491 15.7071 14.646 15.5063 14.1416 15.3311C14.1164 15.3223 14.0937 15.3085 14.0723 15.2939L14.5508 21.3154C14.5904 21.8146 15.0071 22.2001 15.5078 22.2002H18.6924C19.1931 22.2002 19.6098 21.8146 19.6494 21.3154L20.127 15.293C20.1097 15.3048 20.0931 15.3181 20.0732 15.3262ZM17.2041 15.2178C17.7809 15.2218 18.3811 15.1729 18.9639 15.041C18.5378 14.9333 18.0312 14.8402 17.4854 14.8008C17.4227 14.7963 17.3593 14.7931 17.2959 14.79L17.2041 15.2178ZM16.6846 14.7842C16.1994 14.8004 15.7035 14.8667 15.2197 15.001C15.6194 15.0854 16.0894 15.1568 16.5967 15.1934L16.6846 14.7842ZM20.3369 12.6484C19.4629 12.834 18.5767 12.9416 17.6885 12.9746L17.4248 14.1973C17.4597 14.1994 17.4948 14.2006 17.5293 14.2031C18.5994 14.2805 19.5336 14.5443 20.0762 14.7705C20.1096 14.7845 20.1377 14.8061 20.1631 14.8301L20.3369 12.6484ZM14.0352 14.8281C14.0567 14.8081 14.082 14.7916 14.1094 14.7783C14.9859 14.352 15.9313 14.1942 16.8145 14.1826L17.0732 12.9863C15.997 12.9837 14.921 12.8697 13.8623 12.6436L14.0352 14.8281ZM16.335 11.8555C15.561 11.8942 14.8911 12.0028 14.3789 12.1348C15.3124 12.3083 16.2578 12.3935 17.2031 12.3877L17.3203 11.8447C16.979 11.8343 16.6492 11.8398 16.335 11.8555ZM17.8916 12.0381L17.8193 12.3701C18.453 12.34 19.0851 12.271 19.7119 12.1602C19.1469 12.026 18.5887 11.9412 18.0508 11.8926L17.8916 12.0381Z" fill="#292826"/>
<path d="M14.2734 21.2585L13.6797 15.1197C16.3681 13.5835 19.2798 14.4796 20.3997 15.1197L20.0062 21.2127C19.9573 21.9704 19.3285 22.5599 18.5692 22.5599H15.7067C14.9651 22.5599 14.3447 21.9967 14.2734 21.2585Z" fill="#292826" fill-opacity="0.5"/>
<path d="M14.3916 8.53516C15.7371 9.36629 15.9897 10.3937 15.835 10.834C14.3284 10.3452 14.0657 9.17115 14.3916 8.53516ZM16.96 8.36328C17.2048 9.26811 16.8422 9.91901 15.9814 10.2715C15.7776 9.97793 15.7129 8.99955 16.96 8.36328Z" fill="#292826"/>
</svg>
