<svg width="24" height="24" viewBox="0 0 24 24" fill="none" xmlns="http://www.w3.org/2000/svg">
<path d="M13.8008 10.2002L13.8906 10.3203L18.8408 16.9199L19.2002 17.4004H4.80078L5.16016 16.9199L10.1104 10.3203L10.2002 10.2002H13.8008Z" fill="#7B7B7B" stroke="black" stroke-width="0.6"/>
<path d="M4.19922 10.2002C4.39922 11.6002 6.23922 14.3402 11.9992 14.1002C17.7592 13.8602 19.5992 11.4002 19.7992 10.2002" stroke="black" stroke-width="0.6" stroke-linecap="round"/>
<path d="M4.19922 9.19971C4.75137 9.19971 5.19901 9.6476 5.19922 10.1997C5.19922 10.6472 4.90531 11.0252 4.5 11.1528V15.8999H4.55176C4.71074 15.9 4.86314 15.9633 4.97559 16.0757L5.27539 16.3755C5.35496 16.4551 5.46365 16.5005 5.57617 16.5005C5.81029 16.5007 6 16.6901 6 16.9243V16.9614C6 17.0379 5.9378 17.1001 5.86133 17.1001H2.53809C2.46179 17.0999 2.40039 17.0378 2.40039 16.9614V16.9243C2.40039 16.69 2.58992 16.5005 2.82422 16.5005C2.93674 16.5005 3.04446 16.4551 3.12402 16.3755L3.42383 16.0757C3.53635 15.9632 3.6895 15.8999 3.84863 15.8999H3.90039V11.1538C3.49439 11.0266 3.19922 10.6477 3.19922 10.1997C3.19943 9.64773 3.64724 9.19992 4.19922 9.19971Z" fill="black"/>
<path d="M19.7998 9.19971C20.352 9.19971 20.7996 9.6476 20.7998 10.1997C20.7998 10.6476 20.5055 11.0265 20.0996 11.1538V15.8999H20.1514C20.3105 15.8999 20.4636 15.9632 20.5762 16.0757L20.876 16.3755C20.9555 16.4551 21.0633 16.5005 21.1758 16.5005C21.4101 16.5005 21.5996 16.69 21.5996 16.9243V16.9614C21.5996 17.0378 21.5382 17.0999 21.4619 17.1001H18.1387C18.0622 17.1001 18 17.0379 18 16.9614V16.9243C18 16.6901 18.1897 16.5007 18.4238 16.5005C18.5364 16.5005 18.645 16.4551 18.7246 16.3755L19.0244 16.0757C19.1369 15.9633 19.2893 15.9 19.4482 15.8999H19.5V11.1528C19.0946 11.0252 18.7998 10.6472 18.7998 10.1997C18.8 9.64773 19.2478 9.19992 19.7998 9.19971Z" fill="black"/>
</svg>
