<svg width="24" height="24" viewBox="0 0 24 24" fill="none" xmlns="http://www.w3.org/2000/svg">
<path d="M9.63007 8.86357L3.2447 6.99894C2.36936 6.74365 1.46906 7.31781 1.33146 8.21917C1.21086 9.01103 1.73059 9.75989 2.5147 9.92332L8.00351 11.0665C8.27361 10.6181 8.60663 10.1941 8.93896 9.82791C9.25862 9.47578 9.58732 9.16821 9.86872 8.92752L9.63007 8.86357ZM3.35523 8.46925C3.35523 8.80062 3.08689 9.06985 2.75552 9.06985C2.42416 9.06983 2.15611 8.80081 2.15611 8.46945C2.15624 8.13819 2.42428 7.86979 2.75557 7.86979C3.08679 7.8698 3.35499 8.13809 3.35523 8.46925ZM22.6223 13.2376C22.7455 12.7778 22.4732 12.3051 22.0135 12.1817L10.5875 9.12012C10.292 9.34042 9.8326 9.73628 9.38272 10.2319C9.09239 10.5518 8.81465 10.9044 8.58503 11.2658C7.92916 12.7894 7.49488 14.3995 7.29885 16.047L7.18891 16.978C9.53342 18.6231 13.9337 20.9208 20.8121 19.9934L22.6223 13.2376ZM20.645 20.6169C13.9526 21.4535 9.55747 19.3081 7.10891 17.6501L7.00089 18.5513C6.98476 18.6868 7.05043 18.8201 7.16813 18.8893L7.54392 19.1093C11.1775 21.239 15.3187 22.3487 19.5303 22.321L19.7795 22.319C20.022 22.3174 20.2332 22.1538 20.296 21.9196L20.645 20.6169Z" fill="black"/>
<circle cx="18.0008" cy="5.4002" r="3.9" stroke="black" stroke-width="0.6"/>
<circle cx="18.0008" cy="5.4002" r="4.2" fill="black" fill-opacity="0.5"/>
<path d="M18 4.00049V5.86715H19.4" stroke="black" stroke-width="0.6" stroke-linecap="round" stroke-linejoin="round"/>
</svg>
